<svg width="24" height="24" viewBox="0 0 24 24" fill="none" xmlns="http://www.w3.org/2000/svg">
<path fill-rule="evenodd" clip-rule="evenodd" d="M6 5V3C6 2.44772 6.44772 2 7 2H17C17.5523 2 18 2.44772 18 3V5H19C19.5523 5 20 5.44772 20 6V8C20 8.55228 19.5523 9 19 9H17.9369C17.9369 9.02024 17.9363 9.04062 17.935 9.06111L17.2003 21.0611C17.168 21.5887 16.7308 22 16.2022 22H7.79779C7.26924 22 6.83196 21.5887 6.79966 21.0611L6.06497 9.06111C6.06371 9.04062 6.06308 9.02024 6.06306 9H5C4.44772 9 4 8.55228 4 8V6C4 5.44772 4.44772 5 5 5H6ZM7 3H17V5H7L7 3ZM5 6V8H19V6H5ZM7.61412 18L7.24677 12H16.7532L16.3859 18H7.61412ZM7.67534 19L7.79779 21H16.2022L16.3247 19H7.67534ZM16.8145 11H7.18555L7.0631 9H16.9369L16.8145 11Z" fill="black"/>
<path fill-rule="evenodd" clip-rule="evenodd" d="M12 17C13.1046 17 14 16.1046 14 15C14 13.8954 13.1046 13 12 13C10.8954 13 10 13.8954 10 15C10 16.1046 10.8954 17 12 17ZM12 16C12.5523 16 13 15.5523 13 15C13 14.4477 12.5523 14 12 14C11.4477 14 11 14.4477 11 15C11 15.5523 11.4477 16 12 16Z" fill="black"/>
</svg>
