<svg width="264" height="204" viewBox="0 0 264 204" fill="none" xmlns="http://www.w3.org/2000/svg">
<path fill-rule="evenodd" clip-rule="evenodd" d="M66.5626 122.386C67.9068 121.47 70.6553 118.191 72.0954 117.433C75.2976 115.748 89.5634 112.436 90.0272 112.24C90.7337 111.942 95.3231 110.9 97.997 110.242C104.276 108.697 126.776 98.7161 132.707 96.157C133.464 98.1493 139.715 106.944 138.642 107.845C135.112 110.813 128.785 114.508 124.695 116.634C121.388 118.354 117.885 119.777 114.348 120.939C110.333 122.259 107.577 123.674 103.576 125.023C99.6386 126.351 104.344 130.505 106.366 131.363C108.633 132.326 112.146 132.814 114.463 133.649C110.383 139.989 106.957 147.685 106.272 155.281C106.107 157.109 104.713 158.784 102.447 158.237C101.277 157.955 90.4858 156.518 88.7262 156.116C76.9792 153.437 55.8912 139.408 61.3217 125.023C62.5657 125.598 65.4061 123.174 66.5626 122.386Z" fill="#A37C40"/>
<path fill-rule="evenodd" clip-rule="evenodd" d="M73.1344 46.0633C74.0119 45.9893 76.2811 44.2363 75.0903 43.3496C73.8892 42.4551 73.0261 45.4529 73.1344 46.0633ZM27.4206 52.7865C27.6501 52.7459 27.5499 51.4907 27.1888 51.3303C26.0488 50.8242 25.9526 52.7263 25.9247 53.2353C25.8902 53.8776 25.8095 55.6871 27.1958 55.191C27.9826 54.9095 27.4943 53.2679 27.4206 52.7865ZM94.7176 58.6509C94.6868 59.7714 96.9505 61.926 97.7943 60.6337C98.5043 59.5477 94.7758 56.4203 94.7176 58.6509ZM14.6827 33.3798C15.3385 35.053 18.5822 32.7729 18.7028 31.5456C18.9501 29.0323 14.6487 31.7077 14.6827 33.3798ZM41.7446 40.5933C43.2551 40.4692 45.2428 38.5486 46.6995 37.8312C47.6853 37.3458 50.3676 36.7671 50.6592 35.6648C50.9132 34.707 46.3621 36.7571 45.9735 36.9393C44.1882 37.7756 42.5786 38.7292 41.7446 40.5933ZM155.146 27.3501C156.35 26.419 157.814 25.8185 159.357 25.8579C160.128 25.8775 161.736 26.3597 161.796 25.0268C161.895 22.8595 155.088 25.5027 154.024 25.9279C154.398 26.4023 154.772 26.8762 155.146 27.3501ZM80.0347 111.815C79.1514 110.348 77.5628 109.5 76.368 108.249C76.8059 110.303 75.8187 112.131 75.1404 114.007C76.7722 113.276 78.4031 112.546 80.0347 111.815ZM233.427 143.084C233.914 141.455 234.401 139.835 234.971 138.231C235.607 136.434 235.924 136.279 234.4 135.023C233.135 137.414 231.869 139.805 230.604 142.197C231.505 142.58 232.445 142.952 233.427 143.084ZM102.49 25.152C100.816 23.264 92.9652 23.1454 93.9365 27.3124C94.2757 28.7674 96.2057 27.2217 97.4146 26.8825C98.6146 26.5457 102.012 26.5011 102.49 25.152ZM102.203 51.8831C102 51.4012 101.594 49.662 100.993 49.5249C100.406 49.3914 98.0935 51.2155 97.6588 51.4939C95.49 52.8835 93.376 54.3786 91.2626 55.8517C92.0718 55.8517 92.8066 55.5635 93.6109 55.5575C94.5668 55.5492 95.2522 55.9418 96.1842 55.7179C98.1865 55.2371 100.51 53.0183 102.203 51.8831ZM104.372 8.80104C104.56 7.93744 114.375 10.5299 115.555 11.0046C116.197 11.2628 119.513 12.9864 118.801 10.3886C118.395 8.90908 114.564 7.78122 113.336 7.37572C110.214 6.34537 106.923 5.61248 103.599 5.78245C102.954 5.81522 98.0655 6.09729 100.107 8.06207C100.81 8.73871 103.331 8.52543 104.372 8.80104ZM106.521 127.455C108.35 128.355 110.217 129.043 112.128 129.746C112.977 130.059 114.3 130.877 115.236 130.672C116.004 130.503 116.25 129.335 116.653 128.553C118.126 125.692 119.886 123.384 122.067 121.025C121.054 120.286 115.912 123.545 114.639 124.026C113.365 124.508 112.164 124.993 110.917 125.568C109.743 126.11 107.427 126.595 106.521 127.455ZM138.899 103.067C141.564 101.861 144.09 99.7221 146.276 97.8073C148.785 95.6089 151.035 93.3049 152.872 90.4599C151.767 90.5164 149.326 94.0725 149.299 90.2008C149.284 88.2259 151.991 86.2806 152.831 84.4487C150.742 83.2689 148.826 90.3183 146.429 88.6096C144.119 86.9632 147.763 81.3023 148.465 79.5162C147.111 78.6148 139.392 88.7044 138.274 89.9953C137.575 90.8034 135.923 91.8793 135.529 92.8218C135.294 93.3832 135.26 95.1639 135.374 95.6801C135.61 96.7594 136.807 98.052 137.341 99.0571C138.015 100.33 138.603 101.652 138.899 103.067ZM249.074 139.443C246.77 136.19 249.15 134.771 251.024 132.071C252.523 129.911 253.902 127.531 254.852 125.119C257.228 119.087 259.372 113.478 260.545 107.097C258.93 107.834 257.921 110.64 257.113 112.118C256.026 114.106 255.071 116.192 253.863 118.118C251.604 121.721 249.386 125.565 246.512 128.688C245.21 130.104 244.107 131.696 242.605 132.972C241.918 133.554 240.605 134.033 240.099 134.761C239.622 135.449 240.156 135.889 239.975 136.71C239.789 137.553 238.936 138.452 238.57 139.264C238.09 140.33 237.642 141.398 237.106 142.441C236.521 143.578 236.361 144.172 236.203 145.283C236.031 146.498 236.559 146.624 235.498 147.744C237.421 148.592 239.343 149.439 241.266 150.287C241.914 150.573 242.563 150.859 243.212 151.145C243.349 150.889 243.486 150.632 243.622 150.376C244.151 149.863 244.637 148.598 244.939 147.92C246.202 145.091 247.628 142.252 249.074 139.443ZM63.4291 125.787C57.9703 140.158 77.1525 152.259 88.9606 154.936C90.5961 155.306 92.1922 155.791 93.8202 156.189C95.5954 156.623 97.1716 156.537 98.9436 156.719C100.353 156.863 101.025 157.952 102.353 158.252C104.573 158.754 104.438 157.085 104.596 155.298C105.27 147.719 109.138 140.407 113.232 134.083C111.362 133.414 109.509 132.684 107.663 131.951C106.083 131.324 103.665 129.562 101.967 129.469C100.711 129.4 98.7968 130.473 97.577 130.943C95.5456 131.727 93.5082 132.395 91.391 132.929C87.6886 133.864 83.5689 135.138 79.7378 135.235C78.6332 135.263 75.6034 135.777 74.8088 135.095C73.2933 133.793 75.3967 132.708 76.6654 132.244C84.227 129.475 92.2555 128.297 99.8384 125.459C103.741 123.997 107.602 122.366 111.529 120.926C114.914 119.686 118.459 118.588 121.73 117.061C126.05 115.047 130.388 112.537 134.129 109.58C134.878 108.988 136.446 108.109 136.959 107.252C137.411 106.497 137.355 107.25 137.261 106.335C137.194 105.678 136.389 104.786 136.059 104.165C134.826 101.85 133.712 99.4714 132.775 97.0208C126.808 99.5802 121.131 103.064 115.252 105.799C109.335 108.552 102.66 110.494 96.3295 112.043C93.6351 112.702 90.5377 112.911 88.0667 114.213C87.0167 114.767 85.9788 115.407 84.8543 115.727C84.5221 116.364 84.1953 116.489 83.8732 116.102C83.6713 115.875 83.4105 115.779 83.0904 115.815C82.4026 115.931 81.701 116.256 81.0578 116.506C77.802 117.768 74.6844 119.348 71.5936 120.961C70.1285 121.725 68.6256 122.477 67.2236 123.35C66.4722 123.818 65.7988 124.289 65.1839 124.932C64.4466 125.702 64.6222 126.335 63.4291 125.787ZM186.262 40.458C187.642 40.4804 188.899 39.733 190.338 39.7748C192.6 39.8401 194.39 41.594 195.703 43.2854C198.301 46.6319 197.639 50.669 196.334 54.4143C195.709 56.2041 194.852 57.9223 193.781 59.489C192.833 60.8761 191.137 62.188 190.475 63.7323C189.384 66.2793 191.586 65.1962 192.935 64.6524C194.63 63.9678 196.219 63.1171 197.658 61.971C204.072 56.8631 208.95 49.7633 210.585 41.6095C211.382 37.6314 211.32 32.9807 208.549 29.7339C206.016 26.7648 201.642 25.7949 197.904 26.3453C193.862 26.9407 190.2 28.6525 186.909 30.8558C185.953 31.4961 185.078 32.1951 184.181 32.9111C183.003 33.8505 182.298 33.8749 182.593 35.3472C182.811 36.4418 183.407 37.5761 183.791 38.6264C184.51 40.5936 184.248 41.1026 186.262 40.458ZM190.66 74.3723L190.381 74.8494C192.306 74.9409 194.098 73.2435 195.737 72.4149C197.867 71.3379 199.758 69.8688 201.625 68.3853C204.916 65.7686 208.25 62.8197 210.7 59.3845C216.192 51.6842 221.181 41.9213 219.682 32.1582C218.067 21.6359 208.864 17.5855 199.057 18.9784C194.637 19.6061 190.692 21.5792 186.737 23.5824C184.743 24.592 183.061 25.9023 181.234 27.1701C180.286 27.8286 179.422 27.9141 179.36 29.0651C179.313 29.9325 180.813 31.8942 181.218 32.6802C186.184 27.6144 191.536 23.4235 199.035 23.1644C207.957 22.8563 213.233 31.3158 213.193 39.4166C213.155 47.3611 209.729 55.003 204.266 60.7126C201.784 63.3074 199.417 65.3894 196.369 67.2832C194.85 68.2272 193.729 69.0748 192.03 69.7015C190.828 70.1452 190.954 69.9114 190.647 71.0238C190.386 71.9678 190.652 73.3921 190.66 74.3723ZM142.181 182.307C142.065 183.739 141.774 185.148 141.451 186.545C141.334 187.046 140.679 188.629 140.794 189.193C140.984 190.125 140.731 189.526 141.548 190.012C142.399 190.519 143.391 190.489 144.323 190.643C144.899 190.738 147.008 191.731 147.362 191.574C147.983 191.3 147.963 190.334 148.643 189.951C149.57 189.429 150.936 189.876 151.811 190.285C154.149 191.375 155.755 193.632 158.017 194.868C162.034 197.062 166.801 198.277 171.283 198.778C173.711 199.049 176.195 199.526 178.593 198.957C180.483 198.509 182.938 198.55 183.965 196.523C174.838 194.013 160.908 190.941 157.3 180.468C155.338 182.246 152.06 181.288 149.689 181.043C147.081 180.773 144.751 180.836 142.365 179.647C142.191 180.581 142.138 181.357 142.181 182.307ZM61.3747 117.439C65.671 117.699 69.7441 115.665 72.3879 112.235C73.0388 111.39 73.7061 110.528 74.0968 109.527C74.1817 109.273 74.2661 109.019 74.3507 108.766C74.761 108.065 74.5813 107.735 73.8124 107.774C73.3791 107.18 72.2805 106.98 72.5931 105.903C72.8283 105.091 73.6969 105.078 74.4518 104.822C74.0758 104.19 73.8509 103.873 73.3129 103.312C71.9146 104.569 69.3768 107.038 68.3942 104.149C67.922 102.761 68.7529 101.435 68.547 100.097C68.4624 99.5433 67.7608 98.1295 67.354 97.7987C65.1882 96.0353 62.0688 96.7651 59.7708 97.803C58.1871 98.5184 57.8463 98.8541 57.588 100.494C57.3257 102.161 57.0822 103.828 56.7911 105.491C57.7415 104.996 57.9145 103.926 58.5343 103.156C58.7664 103.578 58.9987 104.001 59.2316 104.424C59.5587 104.241 59.8641 104.25 60.1474 104.453C60.606 105.158 60.3176 106.204 60.1765 106.943C61.7058 106.801 62.3521 108.507 60.8104 109.198C59.2135 109.913 58.4932 107.962 58.439 106.698C57.8431 107.41 57.231 107.029 56.8156 107.395C56.4007 107.76 56.2372 108.522 56.0895 109.357C55.8468 110.728 55.2258 112.706 55.8005 114.082C56.6535 116.125 59.3733 117.188 61.3747 117.439ZM185.868 51.814C184.447 53.791 182.023 56.3789 181.516 58.7673C183.082 57.8486 186.392 53.4274 187.245 56.9492C187.735 58.9708 185.224 61.3796 184.607 63.337C187.076 62.5246 188.835 59.9802 190.376 58.0164C192.34 55.5126 194.346 52.2122 194.848 49.0283C195.253 46.4519 193.466 44.0506 190.81 43.7981C189.454 43.6692 188.037 43.8845 186.727 44.1992C186.129 44.3422 185.238 44.5202 184.705 44.8403C184.035 45.2425 183.943 46.1839 183.312 45.4008C182.474 46.9805 181.636 48.5602 180.798 50.1393C181.632 49.8367 183.334 48.5521 184.246 48.6849C185.577 48.8792 185.85 50.8127 185.868 51.814ZM52.7655 13.1408C49.0387 13.2507 45.1432 14.0443 41.615 15.224C40.7389 15.5173 37.0426 16.5601 37.8211 18.0718C38.3356 19.071 41.1095 17.659 41.9481 17.4236C45.5422 16.4143 49.2428 15.7487 52.9241 15.1412C53.8154 14.9942 56.8392 15.0088 56.9952 13.8403C57.1864 12.4146 53.818 13.1392 52.7655 13.1408ZM154.195 175.75C152.175 175.997 150.235 175.905 148.213 175.657C146.511 175.449 144.779 174.753 143.085 174.753C143.085 176.565 142.963 176.576 144.875 176.964C146.209 177.235 147.563 177.387 148.912 177.576C151.287 177.908 153.923 178.84 156.327 178.361C156.269 178.046 156.085 175.923 155.836 175.712C155.695 175.594 154.399 175.752 154.195 175.75ZM121.547 41.6519C122.111 42.0117 123.41 43.4469 124.083 43.4722C123.843 41.8108 121.989 38.918 119.86 39.9446C119.338 40.1966 118.243 41.4501 118.738 42.0031C119.003 42.2988 120.854 41.6539 121.547 41.6519ZM101.852 56.4324C101.872 56.1428 101.893 55.8532 101.915 55.5638C101.134 56.023 100.167 56.2404 99.6115 56.9803C100.278 57.2757 100.944 57.5713 101.611 57.867C101.691 57.3888 101.772 56.9106 101.852 56.4324ZM163.368 100.543C167.059 101.836 170.442 103.562 173.159 106.492C175.507 109.025 176.61 113.49 177.184 116.811C178.602 125.029 175.865 132.646 174.06 140.508C173.145 144.496 171.778 148.334 170.499 152.22C169.381 155.612 168.423 159.165 166.881 162.391C165.573 165.126 163.903 167.823 162.752 170.66C162.133 172.187 161.13 177.428 158.78 175.782C158.139 177.458 157.983 177.316 158.669 178.48C159.165 179.323 160.847 180.494 161.642 181.18C163.758 183.01 166.438 184.518 168.921 185.799C173.468 188.146 178.342 189.902 183.024 192.041C185.095 192.988 187.34 194.105 186.875 196.814C186.486 199.084 185.172 200.806 183.123 201.816C181.2 202.764 178.448 203.497 176.332 203.794C175.076 203.971 174.789 203.448 173.765 203.267C172.626 203.067 171.296 203.455 170.121 203.445C164.845 203.399 160.225 202.072 155.962 199.012C154.438 197.919 152.195 194.953 150.201 194.953C149.182 194.953 149.397 195.572 148.501 195.936C147.394 196.384 145.488 195.538 144.4 195.339C142.083 194.916 139.727 194.487 138.184 192.491C136.515 190.334 137.108 187.662 137.825 185.267C138.633 182.566 139.993 179.827 140.571 177.086C140.712 176.419 140.841 175.176 140.698 174.498C140.476 173.446 139.413 172.818 139.381 171.678C139.372 171.331 139.868 170.874 139.955 170.516C140.146 169.73 140.116 168.915 140.195 168.115C140.336 166.688 140.661 165.321 140.886 163.911C141.396 160.703 142.402 157.84 143.376 154.749C144.321 151.749 145.221 149.516 147.048 146.918C147.993 145.572 151.157 140.779 149.612 139.399C147.497 143.553 145.025 146.792 141.788 150.099C139.313 152.628 136.893 156.028 133.795 157.83C130.389 159.811 126.227 160.976 122.465 162.023C120.676 162.521 119.192 163.625 117.263 163.83C115.173 164.05 113.046 163.79 110.999 163.324C110.423 163.193 108.761 162.307 108.239 162.364C107.471 162.447 106.366 163.816 105.523 164.068C103.471 164.68 102.07 163.511 100.514 162.43C98.8247 161.257 98.3137 160.966 96.3647 160.824C93.9774 160.652 91.6558 159.811 89.3078 159.295C85.1794 158.389 81.6702 156.554 77.9178 154.632C73.6163 152.43 69.937 149.393 66.6947 145.805C61.9286 140.531 55.2909 125.915 63.0767 120.798C58.4932 120.175 54.2954 118.174 53.7366 112.986C53.4446 110.271 53.9942 107.264 54.6768 104.648C54.9883 103.453 55.3597 102.266 55.7155 101.083C55.9836 100.684 56.1255 100.247 56.1402 99.7722C56.3046 99.157 56.0676 98.8504 55.4288 98.8532C54.2217 97.4417 53.3139 96.1957 53.0701 94.1914C52.9932 93.5563 52.9244 92.5826 53.3764 92.0425C53.5854 91.8254 53.8379 91.6803 54.1324 91.6075C54.8401 91.6481 55.0399 91.2994 54.7324 90.5621C55.0758 89.5177 54.5663 88.7038 55.8609 88.2679C56.2758 88.356 56.6889 88.4527 57.1003 88.5572C57.6254 88.7968 57.9669 88.6232 58.1258 88.0385C59.3453 87.5611 58.7828 86.8555 60.4399 87.4696C61.4427 87.8412 62.3967 88.4812 63.1271 89.2609C64.0432 88.6727 61.9597 85.038 61.8903 83.8784C61.7254 81.1448 62.8556 78.8848 64.3259 76.6395C67.1839 72.2762 71.1729 68.5243 75.1067 65.1485C82.6415 58.6835 90.5572 52.5288 99.0651 47.3781C95.5554 44.9405 91.4549 44.2798 87.2787 45.4126C83.4287 46.4571 80.3079 48.3541 76.7639 50.0132C73.4807 51.5497 69.9957 52.1811 68.949 47.9879C67.7761 43.2909 71.5181 41.5471 74.8747 39.4408C74.0366 38.8158 71.2774 39.2626 70.2338 39.3366C67.9094 39.501 65.6862 40.0258 63.4274 40.4899C62.3441 40.7122 61.3488 40.6621 60.2755 40.88C58.68 41.2039 57.014 41.5666 55.3997 42.0281C51.5592 43.1265 47.7472 44.7934 44.4286 47.0395C41.5603 48.98 39.5704 51.7199 37.2594 54.2433C34.624 57.1205 32.0986 59.9517 28.1916 61.0048C26.362 61.4982 24.2158 61.9459 22.9188 60.3118C21.7119 58.7923 21.6446 56.961 21.6843 55.1032C21.7715 50.9993 23.754 46.5648 26.06 43.2114C28.5633 39.5712 31.9161 37.4866 35.0838 34.5567C30.5051 34.884 26.0802 37.2974 21.8694 38.9658C20.9833 39.317 20.0888 39.7117 19.1977 40.0365C18.2477 40.3831 17.6183 40.1709 16.708 40.3296C14.6308 40.692 12.8464 41.5675 10.8258 40.1718C7.003 37.5315 10.833 32.1602 13.4652 30.512C17.1312 28.2166 20.8609 26.284 24.8998 24.6467C22.7132 22.2751 24.5805 18.8904 26.5961 17.208C29.146 15.0789 32.3931 13.859 35.4658 12.7193C37.8957 11.8179 40.2823 10.9524 42.8066 10.41C45.4604 9.83996 48.5634 8.96894 51.256 9.05248C53.7815 9.13085 56.0207 8.68594 58.5784 8.61477C60.7065 8.5556 62.8395 8.60679 64.9674 8.55163C70.6924 8.40371 76.4385 8.78987 82.0338 9.20158C77.6008 -3.76192 106.801 0.241472 113.031 1.93476C118.692 3.47376 125.179 5.25897 129.935 8.91058C131.949 10.4572 133.863 12.2156 135.65 14.02C138.287 16.6823 139.747 20.1688 141.142 23.61C144.68 21.8769 148.063 19.9881 151.935 19.1287C155.618 18.3112 159.392 17.2031 163.097 16.5856C165.914 16.1159 170.003 15.7973 172.374 17.7864C174.949 19.9469 176.29 23.3092 177.827 26.1884C185.209 19.1842 193.442 14.0744 203.967 14.4142C214.266 14.7468 221.038 23.6403 222.286 33.2773C223.662 43.8966 218.931 54.9927 212.519 63.2161C209.644 66.904 206.669 70.4659 202.799 73.2173C200.88 74.5811 198.855 76.0752 196.751 77.1402C195.702 77.6711 194.555 78.1507 193.453 78.5592C192.956 78.7437 192.444 78.9286 191.927 79.0538C190.451 79.412 190.737 78.9338 190.188 80.2261C189.743 81.2755 189.798 83.0809 189.607 84.2325C189.389 85.5487 189.259 86.8831 188.941 88.1815C188.39 90.432 187.816 92.6272 187.125 94.825C185.817 98.9842 184.058 103.176 181.902 106.97C183.73 107.764 186.29 107.844 188.243 108.085C190.357 108.345 192.475 108.892 194.671 109.506C199.071 110.736 203.003 111.775 207.187 113.617C211.531 115.529 215.403 118.384 219.586 120.657C223.432 122.747 227.32 125.364 230.892 127.873C231.742 128.47 232.268 128.989 232.945 129.745C233.637 130.517 233.857 130.668 234.684 131.337C235.057 131.638 236.142 133.16 236.568 133.216C237.33 133.317 237.213 132.748 237.812 131.953C239.062 130.294 240.805 129.009 242.046 127.308C243.082 125.89 244.162 124.454 245.268 123.234C247.946 120.282 250.165 117.011 252.069 113.473C253.06 111.63 254.103 109.877 255.179 108.139C256.25 106.408 258.155 104.123 260.288 104.226C260.117 103.344 259.572 103.198 260.512 102.659C261.118 102.311 262.297 102.871 262.764 103.224C264.002 104.157 264.055 105.969 263.977 107.33C263.776 110.837 263.042 114.298 262.019 117.614C260.79 121.6 259.249 125.117 257.568 128.922C256.229 131.952 254.567 135.96 251.235 137.343C253.473 140.538 252.398 143.141 250.903 146.532C249.81 149.011 248.367 151.573 246.168 153.214C243.69 155.063 241.002 153.494 238.41 152.272C236.844 151.533 232.057 149.791 233.03 147.518C231.834 147.359 231.082 146.49 229.994 146.223C228.841 145.94 229.039 146.408 227.82 146.583C226.885 146.718 225.487 145.88 224.607 145.581C223.136 145.081 221.67 144.568 220.202 144.062C216.069 142.638 212.006 141.237 207.832 140.097C200.067 137.975 192.206 136.771 184.468 134.876C182.916 134.497 181.374 134.13 179.759 133.826C179.426 133.763 177.695 133.667 177.485 133.31C177.117 132.684 178.249 129.183 178.346 128.47C178.984 123.786 178.775 118.659 177.877 114.029C177.504 112.104 175.837 109.612 175.851 107.733C175.862 106.473 176.978 105.097 177.634 103.955C179.256 101.132 180.956 98.0823 182.157 95.1446C183.997 90.6505 185.123 85.5778 185.936 80.7648C186.359 78.2555 186.852 75.5354 186.967 72.9971C187.055 71.0621 186.896 69.0327 187.177 67.0512C186.106 67.1528 184.591 67.7076 183.626 67.1136C182.408 66.3642 182.081 64.2243 182.237 62.9463C178.066 63.6741 178.205 59.7193 178.463 56.6265C170.926 56.6265 180.578 45.4262 181.784 43.0211C182.339 41.9153 182.322 43.1573 182.077 41.4472C181.97 40.6955 181.456 39.8623 181.165 39.1711C180.532 37.6622 179.847 36.1764 179.116 34.7124C177.57 31.6204 175.819 28.6329 173.909 25.7523C172.189 26.9508 170.639 28.3695 169.202 29.8916C170.123 27.4819 172.939 24.4967 171.735 21.7606C170.619 19.2242 166.891 19.4001 164.69 19.8638C158.708 21.1249 152.972 22.9617 147.273 25.0884C149.039 26.1006 151.741 25.3187 153.495 24.5448C155.667 23.5861 158.002 22.5805 160.343 22.0727C162.384 21.6299 165.065 21.781 164.475 24.5304C163.996 26.7582 161.818 28.9036 160.38 30.5693C157.212 34.2391 153.24 37.0801 149.339 39.9187C145.145 42.9701 141.103 46.2855 136.856 49.2486C129.179 54.6051 120.924 59.2604 112.992 64.2603C108.87 66.8583 104.2 68.949 99.7296 70.8744C94.8123 72.9925 90.0977 75.2602 84.9962 76.9332C82.1631 77.8625 79.3549 78.6271 76.571 79.6846C74.826 80.347 71.7873 81.6745 70.6343 79.7073C68.2928 75.7119 76.7665 70.4575 79.0886 68.0147C80.6905 69.5705 72.7909 75.3679 73.4093 77.633C73.895 79.4131 75.7741 77.1145 76.6815 76.6294C78.1478 75.8452 79.8844 75.4511 81.3581 74.5563C84.3807 72.7213 87.9644 70.6049 88.6545 66.8113C88.1743 66.3046 88.1804 65.8368 88.6727 65.4078C88.8918 65.1473 89.0656 64.8611 89.1938 64.5491C89.4088 63.9528 89.4952 63.2063 89.6103 62.5741C89.9506 60.7059 89.0964 58.9567 89.8948 57.1283C85.2363 60.6579 80.7587 64.6449 76.3366 68.4659C72.3703 71.8933 68.2315 76.3813 66.7739 81.4955C66.5873 82.1507 66.277 82.8941 66.311 83.5856C66.3772 84.9433 66.5128 84.6505 67.6065 85.087C68.7005 85.5237 70.2934 85.486 71.4698 85.5323C72.1403 85.5582 75.135 84.8483 74.5396 86.3197C74.1964 87.1681 72.1204 87.1362 71.3771 87.2145C69.5115 87.4114 68.4998 87.2093 69.3837 89.2315C69.7798 90.1378 70.5825 90.7519 71.2121 91.4532C72.9645 93.4048 73.9163 96.3981 75.2947 98.6909C76.8652 101.303 78.5917 103.787 80.4259 106.22C81.1828 107.223 82.1944 109.11 83.2438 109.826C84.2235 110.495 83.0708 110.44 84.6983 110.168C85.4076 110.05 86.0505 109.588 86.7291 109.423C90.7864 108.435 94.9568 107.321 99.1526 106.1C104.52 104.54 110.152 103.209 115.272 100.962C119.859 98.948 124.412 96.5507 129.047 94.5112C130.401 93.9161 131.753 93.5214 132.805 92.426C134.075 91.104 135.126 89.3731 136.297 87.9521C138.289 85.5346 140.125 83.076 142.269 80.7852C143.865 79.0806 146.694 75.912 148.945 75.2314C153.224 73.9391 150.934 80.4556 150.38 82.1026C151.386 82.3309 151.915 81.0409 153.095 81.412C154.509 81.8565 154.655 83.7359 154.832 84.9136C154.879 85.2274 154.454 85.8139 154.583 86.0937C154.627 86.189 155.549 86.7343 155.727 86.9871C156.373 87.9052 156.246 89.0216 156.001 90.0117C154.735 95.1405 150.235 98.8855 146.925 102.669C148.406 102.389 149.503 101.545 150.901 101.126C152.213 100.734 153.532 100.755 154.854 100.642C156.239 100.524 157.568 100.006 158.985 99.9798C160.471 99.9521 161.894 100.375 163.368 100.543Z" fill="#362023"/>
<path fill-rule="evenodd" clip-rule="evenodd" d="M6.83365 54.4123C6.01746 54.9458 5.78741 55.4692 5.75922 56.6999C5.74794 57.2046 5.78274 59.0877 6.4882 59.0166C7.15022 58.9501 6.83365 55.0598 6.83365 54.4123ZM2.61748 57.4793C2.99779 53.5348 4.44089 49.5241 7.83572 47.0664C8.67529 46.4586 9.62502 46.4802 10.5452 46.0967C11.0982 45.8664 11.9718 44.7954 12.5996 44.9221C14.9107 45.3897 12.2407 48.4604 11.8497 49.2682C10.6381 51.7709 10.7199 53.9698 10.7561 56.6697C10.7836 58.7215 11.21 62.1806 10.1755 64.0378C9.07287 66.0154 6.68123 64.7311 5.34623 63.5608C3.66138 62.083 2.38889 59.73 2.61748 57.4793Z" fill="#362023"/>
<path fill-rule="evenodd" clip-rule="evenodd" d="M43.1872 69.1358C43.1872 71.3368 44.9736 69.8466 44.91 68.281C44.8164 65.9761 43.1037 67.3955 43.1872 69.1358ZM52.6846 56.9676C50.7295 58.7261 49.2212 59.7127 48.8443 62.4166C48.559 64.4647 48.8426 66.4932 48.8547 68.5563C48.8751 72.0145 46.0826 75.65 43.0775 71.686C40.8855 68.7946 41.6717 64.2482 43.4593 61.3422C44.3972 59.8178 45.7362 58.3095 47.2831 57.3594C48.4465 56.6443 51.7193 55.2374 52.6846 56.9676Z" fill="#362023"/>
<path fill-rule="evenodd" clip-rule="evenodd" d="M25.3783 110.264C25.1517 110.8 24.6194 112.99 25.7053 112.495C26.6637 112.057 26.0427 110.606 25.3783 110.264ZM19.6414 103.503C19.4738 102.68 19.5421 97.5179 20.964 97.9052C22.0807 98.2086 22.2653 100.851 22.7201 101.77C24.4144 105.195 28.303 107.327 29.644 110.862C31.1408 114.809 26.6154 114.932 24.214 113.333C21.3708 111.441 19.7257 106.806 19.6414 103.503Z" fill="#362023"/>
<path fill-rule="evenodd" clip-rule="evenodd" d="M16.1558 82.3382C16.7728 81.505 16.8352 81.0599 16.4834 80.3229C16.0337 80.812 16.1135 81.511 16.1558 82.3382ZM16.6023 86.065C13.3854 86.4251 13.2244 80.4971 13.7752 78.4616C14.214 76.8405 15.1571 75.0987 16.1282 73.7779C16.3242 73.5113 18.184 71.1163 18.5485 71.1105C19.9477 71.0884 19.5633 72.6692 19.4122 73.2576C18.9369 75.1117 18.7486 76.6611 18.8764 78.7167C19.0138 80.9162 20.0554 86.1381 16.6023 86.065Z" fill="#362023"/>
<path fill-rule="evenodd" clip-rule="evenodd" d="M162.661 34.7254C158.061 38.5829 153.694 42.7591 148.693 46.1333C146.245 47.7846 143.687 49.2454 141.245 50.9236C140.001 51.7783 138.732 52.5436 137.352 53.1717C136.133 53.7268 135.336 53.7991 136.348 52.4817C137.024 51.6016 138.539 50.9883 139.46 50.3628C140.877 49.3992 142.215 48.3305 143.706 47.4757C146.334 45.968 148.946 44.7508 151.368 42.9019C153.519 41.2612 155.737 39.6594 157.789 37.9156C158.669 37.1679 161.587 33.7351 162.661 34.7254Z" fill="#362023"/>
<path fill-rule="evenodd" clip-rule="evenodd" d="M162.754 48.6544C164.822 50.4238 159.647 55.2713 158.467 56.37C157.222 57.5287 155.851 58.5623 154.498 59.5886C154.021 59.9502 151.422 62.3694 150.762 62.1742C149.46 61.7887 151.169 60.2191 151.614 59.81C153.051 58.4845 154.519 57.1982 155.925 55.8371C157.192 54.6106 158.565 53.4749 159.791 52.2087C160.784 51.1829 161.618 49.4449 162.754 48.6544Z" fill="#362023"/>
<path fill-rule="evenodd" clip-rule="evenodd" d="M9.50037 119.982C8.96028 118.731 7.99301 120.12 8.48338 120.745C8.94715 121.337 9.4313 120.223 9.50037 119.982ZM6.33352 117.511C6.62306 115.671 7.29218 114.648 9.01855 116.219C10.2048 117.298 12.5907 120.367 12.3643 122.041C12.0671 124.235 9.64987 123.613 8.39684 122.465C7.11245 121.289 6.54544 119.143 6.33352 117.511Z" fill="#362023"/>
<path fill-rule="evenodd" clip-rule="evenodd" d="M10.1166 153.729C8.00179 153.568 6.19755 151.944 5.29946 150.042C4.54382 148.442 3.8286 145.862 6.48331 146.703C8.21351 147.252 14.8833 153.987 10.1166 153.729Z" fill="#362023"/>
<path fill-rule="evenodd" clip-rule="evenodd" d="M35.7463 143.297C34.1119 143.669 32.4953 142.593 31.4903 141.379C30.865 140.623 29.4097 137.973 30.1429 136.882C31.165 135.361 32.7081 138.419 33.2404 139.024C34.0753 139.972 36.8057 141.786 35.7463 143.297Z" fill="#362023"/>
<path fill-rule="evenodd" clip-rule="evenodd" d="M37.2183 101.915C35.9371 101.321 34.7478 100.605 34.2325 99.1849C33.9049 98.2806 33.6297 95.569 35.0847 95.5813C36.7677 95.5963 40.6215 101.644 37.2183 101.915Z" fill="#362023"/>
<path fill-rule="evenodd" clip-rule="evenodd" d="M28.2365 73.7022C29.9518 73.6711 30.358 74.6171 30.5964 75.9763C30.7585 76.8987 31.5441 80.0301 30.7282 80.6715C29.5622 81.5882 27.7073 79.488 27.3325 78.6635C26.5598 76.966 27.6282 75.2965 28.2365 73.7022Z" fill="#362023"/>
<path fill-rule="evenodd" clip-rule="evenodd" d="M57.7109 167.595C58.5461 167.975 60.4462 168.818 59.7202 170.125C58.961 171.493 56.7813 170.164 55.9672 169.566C55.6263 169.316 53.4607 167.678 53.5514 167.129C53.7423 165.962 56.7275 167.485 57.7109 167.595Z" fill="#362023"/>
<path fill-rule="evenodd" clip-rule="evenodd" d="M2.68503 82.1965C3.25575 83.6256 3.89819 88.5354 0.892793 85.8842C-0.0243555 85.0749 -0.162776 84.0644 0.153218 82.9534C0.610137 81.3435 1.27509 81.6627 2.68503 82.1965Z" fill="#362023"/>
<path fill-rule="evenodd" clip-rule="evenodd" d="M161.952 63.9128C161.287 62.5531 162.93 61.6761 163.808 60.7998C164.381 60.2275 166.791 57.1231 167.582 57.2984C169.207 57.6591 162.751 63.3065 161.952 63.9128Z" fill="#362023"/>
<path fill-rule="evenodd" clip-rule="evenodd" d="M28.2149 162.398C29.7831 162.146 30.149 163.888 31.1592 164.647C31.5925 164.973 33.0798 165.259 32.7806 165.951C31.9947 167.766 28.138 163.618 28.2149 162.398Z" fill="#362023"/>
<path fill-rule="evenodd" clip-rule="evenodd" d="M41.457 121.259C42.5348 120.808 45.6458 123.232 44.7525 124.279C43.4172 125.845 41.533 122.116 41.457 121.259Z" fill="#362023"/>
<path fill-rule="evenodd" clip-rule="evenodd" d="M64.1768 156.323C63.3911 156.401 60.0754 155.359 61.3039 153.964C62.1664 152.983 64.4586 155.436 64.1768 156.323Z" fill="#362023"/>
<path fill-rule="evenodd" clip-rule="evenodd" d="M24.4711 149.627C23.6912 149.939 20.8779 149.298 21.7623 148.076C22.605 146.913 24.4723 148.662 24.4711 149.627Z" fill="#362023"/>
<path fill-rule="evenodd" clip-rule="evenodd" d="M47.5028 154.898C48.4148 154.804 49.0735 155.354 49.2301 156.285C48.0895 156.447 47.7377 156.176 47.5028 154.898Z" fill="#362023"/>
<path fill-rule="evenodd" clip-rule="evenodd" d="M166.116 19.7181C166.501 19.7199 166.886 19.7219 167.267 19.7236C166.881 19.7216 166.499 19.7199 166.116 19.7181Z" fill="#362023"/>
<path fill-rule="evenodd" clip-rule="evenodd" d="M160.07 99.8986C159.494 99.8992 158.918 99.9003 158.343 99.9009C158.919 99.8998 159.494 99.8992 160.07 99.8986Z" fill="#362023"/>
<path fill-rule="evenodd" clip-rule="evenodd" d="M81.5144 6.04584C81.4879 6.62229 81.4615 7.19874 81.4344 7.77321C81.4603 7.19627 81.4874 6.62079 81.5144 6.04584Z" fill="#362023"/>
<path fill-rule="evenodd" clip-rule="evenodd" d="M259.914 103.93C260.097 104.571 259.829 104.677 259.106 104.249C259.375 104.142 259.644 104.037 259.914 103.93Z" fill="#362023"/>
<path fill-rule="evenodd" clip-rule="evenodd" d="M243.56 154.165C243.849 154.167 244.137 154.169 244.423 154.171C244.133 154.169 243.847 154.167 243.56 154.165Z" fill="#362023"/>
<path fill-rule="evenodd" clip-rule="evenodd" d="M188.859 107.824C188.377 108.192 187.896 108.244 187.42 107.805C187.9 107.811 188.38 107.818 188.859 107.824Z" fill="#362023"/>
<path fill-rule="evenodd" clip-rule="evenodd" d="M178.082 58.7307C178.07 59.2111 178.057 59.6914 178.045 60.1701C178.057 59.6891 178.069 59.2097 178.082 58.7307Z" fill="#362023"/>
<path fill-rule="evenodd" clip-rule="evenodd" d="M202.966 14.3083C202.486 14.308 202.006 14.3075 201.527 14.3069C202.007 14.1273 202.487 14.1863 202.966 14.3083Z" fill="#362023"/>
<path fill-rule="evenodd" clip-rule="evenodd" d="M73.9891 8.54185C73.6054 8.50932 73.221 8.4765 72.8376 8.44397C73.221 8.4765 73.6048 8.50932 73.9891 8.54185Z" fill="#362023"/>
<path fill-rule="evenodd" clip-rule="evenodd" d="M80.3228 8.99811C79.9391 9.14119 79.5553 9.22583 79.1713 9.00012C79.5553 8.99955 79.9391 8.99868 80.3228 8.99811Z" fill="#362023"/>
<path fill-rule="evenodd" clip-rule="evenodd" d="M46.0633 9.78644C45.5831 9.88403 45.1035 9.98163 44.6238 10.0784C45.104 9.98163 45.5837 9.88403 46.0633 9.78644Z" fill="#362023"/>
<path fill-rule="evenodd" clip-rule="evenodd" d="M178.371 126.962C178.358 127.25 178.344 127.539 178.332 127.826C178.345 127.537 178.358 127.249 178.371 126.962Z" fill="#362023"/>
<path fill-rule="evenodd" clip-rule="evenodd" d="M19.7128 103.642C19.7185 103.835 19.724 104.027 19.7292 104.218C19.7228 104.025 19.7182 103.834 19.7128 103.642Z" fill="#362023"/>
<path fill-rule="evenodd" clip-rule="evenodd" d="M261.697 102.609L260.258 102.617C260.736 102.259 261.216 102.305 261.697 102.609Z" fill="#362023"/>
<path fill-rule="evenodd" clip-rule="evenodd" d="M163.237 100.571C162.852 100.507 162.469 100.444 162.085 100.381C162.469 100.444 162.853 100.507 163.237 100.571Z" fill="#362023"/>
<path fill-rule="evenodd" clip-rule="evenodd" d="M57.867 167.552C57.3871 167.458 56.9074 167.364 56.4275 167.271L57.867 167.552Z" fill="#362023"/>
<path fill-rule="evenodd" clip-rule="evenodd" d="M154.757 84.9291C154.748 84.6409 154.739 84.3527 154.731 84.0654C154.739 84.3536 154.748 84.6415 154.757 84.9291Z" fill="#362023"/>
<path fill-rule="evenodd" clip-rule="evenodd" d="M145.099 195.607C145.292 195.619 145.485 195.631 145.675 195.643C145.482 195.631 145.29 195.619 145.099 195.607Z" fill="#362023"/>
<path fill-rule="evenodd" clip-rule="evenodd" d="M12.9553 41.0136C13.2443 41.0211 13.5334 41.0289 13.819 41.0366C13.5285 41.0289 13.2419 41.0211 12.9553 41.0136Z" fill="#362023"/>
<path fill-rule="evenodd" clip-rule="evenodd" d="M54.4122 13.2415C53.7389 13.2426 53.0663 13.2438 52.397 13.2449C53.0718 13.2438 53.742 13.2426 54.4122 13.2415Z" fill="#362023"/>
<path fill-rule="evenodd" clip-rule="evenodd" d="M190.429 72.5497C190.438 73.0302 190.447 73.5107 190.457 73.9892C190.448 73.5084 190.439 73.0287 190.429 72.5497Z" fill="#362023"/>
<path fill-rule="evenodd" clip-rule="evenodd" d="M155.176 175.625C154.79 175.62 154.406 175.613 154.024 175.607C154.41 175.612 154.793 175.619 155.176 175.625Z" fill="#362023"/>
<path fill-rule="evenodd" clip-rule="evenodd" d="M196.057 23.0875C196.633 23.0236 197.208 22.9597 197.784 22.8958C197.231 23.3846 196.635 23.0593 196.057 23.0875Z" fill="#362023"/>
<path fill-rule="evenodd" clip-rule="evenodd" d="M152.009 175.776C151.72 175.765 151.432 175.754 151.145 175.744C151.435 175.755 151.722 175.765 152.009 175.776Z" fill="#362023"/>
<path fill-rule="evenodd" clip-rule="evenodd" d="M142.055 180.798C142.069 181.279 142.084 181.759 142.098 182.238C142.084 181.756 142.069 181.277 142.055 180.798Z" fill="#362023"/>
<path fill-rule="evenodd" clip-rule="evenodd" d="M185.98 40.7655C186.365 40.7298 186.748 40.6941 187.132 40.6587C186.782 40.9287 186.37 40.7707 185.98 40.7655Z" fill="#362023"/>
<path fill-rule="evenodd" clip-rule="evenodd" d="M120.052 41.602C120.531 41.1938 121.011 41.2381 121.492 41.5974C121.012 41.5986 120.532 41.6003 120.052 41.602Z" fill="#362023"/>
<path fill-rule="evenodd" clip-rule="evenodd" d="M102.038 56.1397C102.052 55.9477 102.065 55.7556 102.08 55.5639C102.067 55.7562 102.052 55.948 102.038 56.1397Z" fill="#362023"/>
<path fill-rule="evenodd" clip-rule="evenodd" d="M185.83 50.6696C185.835 51.0542 185.838 51.4386 185.843 51.8212C185.839 51.4357 185.835 51.0528 185.83 50.6696Z" fill="#362023"/>
<path fill-rule="evenodd" clip-rule="evenodd" d="M58.8124 110.849C59.4441 111.063 60.7146 111.71 61.4507 111.624C62.04 111.555 62.5257 110.839 63.094 110.84C64.6242 110.842 64.3403 112.611 63.601 113.56C61.6016 116.129 57.1337 113.344 58.8124 110.849Z" fill="#362023"/>
<path fill-rule="evenodd" clip-rule="evenodd" d="M65.0578 101.627C67.1444 102.166 66.1051 106.756 64.351 107.071C62.2856 107.443 61.9258 103.711 62.3337 102.362C63.3966 102.993 62.7385 105.246 64.0781 104.624C64.9299 104.227 64.8004 102.395 65.0578 101.627Z" fill="#362023"/>
</svg>
