<svg width="431" height="323" viewBox="0 0 431 323" fill="none" xmlns="http://www.w3.org/2000/svg">
<path fill-rule="evenodd" clip-rule="evenodd" d="M188.981 141.091C185.151 143.865 185.761 149.325 186.914 153.291C188.612 159.132 191.994 164.538 195.852 169.199C202.696 177.466 214.315 186.75 225.025 179.491C234.562 173.027 240.579 159.984 242.656 148.997C243.297 145.602 244.152 140.543 241.136 137.99C236.678 134.217 228.814 134.904 223.432 135.39C219.887 135.709 216.468 136.795 212.965 136.285C204.827 135.1 195.77 136.174 188.981 141.091Z" fill="#FF5678"/>
<path fill-rule="evenodd" clip-rule="evenodd" d="M353.985 184.355C346.226 194.19 333.034 195.744 321.318 195.648C314.282 195.59 307.233 195.06 300.336 193.628C296.617 192.855 292.924 191.832 289.331 190.603C286.958 189.791 283.425 189.385 282.414 186.844C279.751 180.14 281.711 171.732 282.808 164.927C283.366 161.466 283.785 157.984 284.327 154.52C284.675 152.304 284.841 149.852 285.771 147.778C286.859 145.35 288.233 145.835 290.536 146.505C293.707 147.431 296.963 147.815 300.224 148.313C308.181 149.527 315.124 151.975 322.356 155.446C329.508 158.877 336.444 162.264 342.823 167.035C346.055 169.453 348.839 172.078 351.434 175.159C353.438 177.54 356.429 181.257 353.985 184.355ZM320.067 228.04C320.005 229.099 307.844 225.902 306.244 225.543C295.744 223.19 285.036 220.509 275.123 216.257C265.871 212.289 257.718 207.748 250.437 200.697C247.043 197.411 243.991 193.95 241.07 190.264C239.606 188.416 237.606 188.631 235.973 187.068C234.504 185.661 233.378 184.563 233.837 182.46C237.507 183.426 244.282 189.499 248.086 186.432C250.254 184.684 247.248 182.858 245.859 181.845C243.249 179.94 241.018 177.591 238.943 175.124C242.505 175.815 245.821 177.147 248.921 179.003C250.298 179.827 255.019 182.816 256.118 179.967C256.794 178.213 253.593 176.009 252.595 175.038C250.144 172.655 247.499 169.874 246.198 166.67C249.415 165.924 252.447 168.409 254.638 170.432C257.069 172.679 260.05 175.037 262.089 177.625C263.141 178.96 263.37 180.537 264.192 181.977C265.116 183.597 266.595 184.986 268.009 186.185C270.732 188.495 273.918 190.196 277.187 191.603C284.659 194.817 292.667 197.091 300.631 198.687C304.538 199.47 308.349 199.831 312.314 199.964C315.396 200.067 316.76 200.988 317.937 203.825C321.121 211.503 320.543 219.949 320.067 228.04ZM228.614 169.538C226.832 171.204 224.517 172.249 222.654 173.851C221.015 175.26 219.125 176.763 217.296 177.903C215.343 179.12 213.884 178.267 212.126 177.166C210.062 175.875 207.689 175.351 205.563 174.196C198.212 170.198 189.22 160.404 190.593 151.41C191.174 147.598 193.146 143.848 196.728 142.118C199.98 140.548 204.708 139.676 208.188 140.989C210.151 141.73 211.555 143.364 212.813 144.972C214.279 146.846 214.841 146.55 216.334 144.743C219.007 141.51 223.414 138.674 227.771 138.742C229.936 138.776 232.086 139.232 234.037 140.13C234.301 140.252 234.448 140.621 234.714 140.746C235.039 140.899 235.574 140.58 235.801 140.723C236.372 141.085 236.942 142.213 237.271 142.786C238.593 145.083 240.973 149.589 238.575 151.524C238.573 151.525 238.681 154.142 238.649 154.44C238.479 156.001 237.939 157.29 237.244 158.718C235.154 163.006 232.07 166.308 228.614 169.538ZM232.167 205.825C230.479 206.349 228.661 201.063 230.28 200.22C231.824 199.415 233.695 205.351 232.167 205.825ZM205.655 199.505C205.071 201.502 204.824 203.768 203.394 205.393C202.085 203.841 201.956 200.977 203.225 199.381C203.95 198.471 206.295 197.323 205.655 199.505ZM259.671 164.521C259.662 164.572 261.702 165.547 260.707 166.613C259.347 168.07 259.534 165.235 259.671 164.521ZM268.104 148.249C268.081 150.267 263.804 149.78 263.834 147.749C263.871 145.25 268.129 146.108 268.104 148.249ZM262.998 131.376C263.422 129.527 270.862 126.956 270.659 130.177C270.557 131.792 262.101 135.305 262.998 131.376ZM186.73 194.06C185.896 195.061 184.711 195.456 183.712 196.225C182.663 197.031 181.914 198.077 180.999 199.023C178.484 201.621 175.457 203.755 172.745 206.141C167.758 210.527 162.981 215.243 157.452 218.963C147.571 225.61 136.113 229.246 124.739 232.43C123.796 232.693 121.082 233.758 120.15 232.965C119.144 232.11 119.656 229.101 119.702 227.964C119.89 223.299 120.435 218.579 120.376 213.922C120.351 212.009 119.791 209.289 120.789 207.539C121.905 205.584 125.019 205.012 126.945 204.276C132.8 202.04 138.44 198.268 143.612 194.775C149.97 190.48 156.391 186.114 162.934 182.105C169.343 178.177 176.414 175.547 183.564 173.304C183.896 173.999 180.484 176.238 180.094 176.551C178.223 178.056 176.188 179.616 174.8 181.603C173.816 183.009 172.808 186.191 175.523 186.273C176.838 186.312 178.784 185.04 179.977 184.629C181.948 183.949 183.979 183.472 186.04 183.162C184.268 185.112 178.261 188.614 179.354 191.857C180.414 195.004 186.548 191.332 188.659 191.332C188.313 192.429 187.443 193.203 186.73 194.06ZM114.266 202.842C110.338 204.223 106.311 205.007 102.257 205.899C98.3931 206.748 94.8213 207.388 90.8632 206.891C85.3987 206.204 79.3512 203.943 78.6584 197.738C77.8368 190.386 83.0328 183.631 87.4943 178.356C92.9243 171.939 99.0215 166.202 105.63 161.008C112.23 155.818 119.355 151.243 126.818 147.38C132.497 144.442 138.91 142.658 144.914 140.452C146.056 140.033 149.216 138.559 150.284 139.78C151.148 140.768 149.972 142.414 149.579 143.331C148.811 145.12 148.706 146.92 148.507 148.84C147.622 157.415 146.556 165.987 146.066 174.598C145.93 176.998 145.689 179.509 145.829 181.91C145.907 183.241 146.599 184.935 146.138 186.233C145.251 188.73 141.19 190.382 139.038 191.498C135.185 193.494 131.104 194.984 127.212 196.893C122.936 198.991 118.774 201.258 114.266 202.842ZM168.744 147.127C169.822 146.979 171.437 146.685 172.398 147.383C173.652 148.294 173.323 149.56 172.165 150.22C171.251 150.742 169.111 150.885 168.208 150.411C166.669 149.605 166.93 147.376 168.744 147.127ZM174.715 166.982C173.844 168.432 170.66 169.383 170.937 166.677C171.175 164.36 176.32 164.312 174.715 166.982ZM173.533 126.132C174.934 126.674 177.476 127.138 177.891 128.939C178.277 130.614 176.689 130.504 175.542 130.042C174.598 129.664 170.397 126.103 173.533 126.132ZM392.987 190.055C392.169 186.874 392.792 183.352 392.341 180.094C391.903 176.935 391.114 174.033 389.984 171.057C387.48 164.467 384.611 158.535 380.552 152.752C372.908 141.861 364.04 132.269 353.331 124.314C342.758 116.461 331.051 110.079 318.649 105.606C305.499 100.862 292.261 99.2115 278.393 98.3022C274.251 98.0309 270.114 97.7092 265.996 97.1864C262.986 96.8045 259.213 96.3339 256.237 97.255C254.368 97.8341 253.323 99.463 255.36 100.532C256.804 101.29 258.694 101.381 260.289 101.582C258.363 107.697 255.228 113.834 250.261 118.045C245.411 122.156 238.922 123.565 232.801 124.608C229.483 125.173 225.767 125.61 222.396 125.366C220.265 125.213 218.603 124.227 217.743 126.42C217.147 127.943 216.864 129.615 216.078 127.315C215.147 124.595 214.691 124.612 211.797 123.839C205.879 122.26 199.094 120.818 193.931 117.402C188.574 113.857 186.711 108.123 183.721 102.783C182.981 101.464 180.751 98.7926 181.89 97.2802C182.933 95.8974 186.323 96.0353 187.875 95.8911C189.513 95.7388 191.161 95.7325 192.805 95.6686C193.757 95.632 195.672 96.0219 195.289 94.6007C194.711 92.4588 188.519 92.7334 186.981 92.6985C184.122 92.6346 181.223 92.7006 178.377 93.0148C164.27 94.5738 150.036 97.4564 136.384 101.3C109.898 108.758 84.2458 122.5 64.9165 142.297C46.362 161.301 40.4837 192.924 51.8901 217.188C57.818 229.799 70.6824 234.979 83.1528 239.163C89.7306 241.369 96.6956 243.095 103.688 242.679C107.043 242.479 110.227 241.576 113.5 240.896C114.927 240.599 116.551 240.126 118.017 240.246C119.127 240.336 120.193 241.354 121.234 240.813C121.972 240.429 122.293 239.327 123.196 238.858C124.28 238.295 125.594 238.091 126.765 237.807C130.019 237.017 133.17 235.736 136.351 234.686C139.64 233.6 142.744 232.201 145.9 230.787C147.494 230.072 151.181 227.169 152.22 229.292C152.693 230.261 152.492 232.129 152.607 233.145C152.809 234.923 153.046 236.696 153.306 238.466C153.878 242.362 154.562 246.243 155.263 250.118C156.529 257.11 158.16 263.804 160.888 270.382C163.065 275.633 164.977 281.586 169.021 285.764C170.786 287.588 173.195 288.408 175.727 287.835C178.607 287.183 180.04 284.569 181.789 282.456C185.635 277.805 191.986 274.241 197.851 272.958C205.031 271.387 212.027 273.685 218.881 275.638C226.132 277.704 233.513 279.672 240.63 282.155C247.261 284.47 254.422 287.888 261.614 287.59C267.886 287.331 273.744 282.231 278.268 278.342C282.811 274.438 288.491 268.72 295.023 269.181C298.267 269.409 301.223 270.972 304.382 271.608C307.851 272.306 311.542 272.405 315.069 272.665C319.447 272.988 329.242 271.847 330.862 266.584C331.102 265.803 331.104 264.195 330.072 263.883C329.122 263.596 328.638 264.704 327.738 264.654C325.909 264.551 324.479 261.363 323.474 260.129C319.418 255.147 313.854 251.432 309.302 246.931C304.163 241.85 299.775 235.693 295.902 229.621C297.653 229.166 299.542 229.921 301.236 230.28C303.295 230.716 305.302 231.242 307.33 231.8C309.567 232.416 311.835 232.839 314.104 233.308C315.798 233.657 318.045 233.762 319.573 234.611C320.908 235.352 321.653 236.148 323.309 236.363C324.993 236.582 326.723 236.397 328.415 236.386C332.992 236.355 337.56 236.27 342.115 235.787C358.212 234.078 375.275 227.275 384.954 213.773C387.586 210.1 389.707 206.032 391.048 201.715C392.094 198.344 393.897 193.594 392.987 190.055Z" fill="black"/>
<path fill-rule="evenodd" clip-rule="evenodd" d="M206.706 73.2798C203.841 74.168 200.455 73.1229 198.809 70.5679C197.135 67.9701 195.989 64.9638 195.758 61.8692C195.538 58.9042 196.212 55.9021 197.962 53.4679C199.824 50.8784 203.619 47.976 207.022 48.8752C207.739 49.0649 208.387 49.5212 209.03 49.9742C209.712 50.4545 210.388 50.931 211.134 51.0798C211.326 51.1181 211.461 51.1543 211.561 51.1808C211.696 51.217 211.768 51.2363 211.832 51.2216C211.906 51.2048 211.969 51.1438 212.104 51.013C212.181 50.9381 212.282 50.8405 212.422 50.7156C212.71 50.4587 212.988 50.0717 213.26 49.6932C213.443 49.4388 213.624 49.1877 213.802 48.9829C214.146 48.5888 214.489 48.1905 214.833 47.7914C217.046 45.2259 219.302 42.6112 222.006 40.5821C227.611 36.3776 235.059 34.3918 242.012 34.4905C246.242 34.5503 250.207 35.8037 254.149 37.2287C254.479 37.3482 254.812 37.4669 255.146 37.586L255.147 37.5864C258.313 38.7153 261.578 39.8797 264.113 42.1414C269.154 46.6403 270.468 54.089 271.293 60.4616C272.186 67.3627 269.724 73.3 267.175 79.4509V79.4517L267.174 79.453V79.4534C266.786 80.3896 266.396 81.3304 266.015 82.28C263.32 89.0088 258.372 94.4598 252.491 98.6134C249.41 100.789 246.005 102.102 242.442 103.254C241.703 103.493 240.969 103.749 240.235 104.004H240.235C237.376 104.998 234.528 105.989 231.447 105.984C225.567 105.976 218.039 103.185 215.535 97.3971C214.394 94.7614 215.505 94.2882 217.786 95.7207C218.185 95.971 218.582 96.2237 218.979 96.4761V96.4765H218.98L218.981 96.4777C221.877 98.3207 224.755 100.153 228.156 100.963C235.659 102.751 244.644 99.9811 251.222 96.3255C257.798 92.6711 262.213 87.181 265.163 80.3454C268.14 73.4489 269.296 66.6532 268.148 59.2188C267.176 52.9182 265.24 47.1631 259.558 43.743C247.292 36.3606 230.766 36.9555 219.858 46.5494C218.361 47.8646 216.883 49.1444 215.341 50.4006C214.361 51.1989 213.207 52.1565 213.35 53.5368C213.381 53.8413 213.571 54.37 213.785 54.9626C214.401 56.6718 215.211 58.9164 212.956 57.8771C212.026 57.4486 211.257 56.8652 210.499 56.2903C209.249 55.3432 208.03 54.4188 206.173 54.248C202.998 53.9553 199.211 56.3921 198.261 59.4593C197.356 62.3861 198.971 66.3904 201.501 68.0689C202.924 69.0135 204.478 68.9672 206.085 68.9193C206.246 68.9147 206.409 68.9096 206.571 68.9058C206.695 68.9029 206.85 68.8949 207.026 68.8856C208.107 68.8284 209.994 68.7292 210.497 69.5312C211.531 71.1811 207.883 72.9152 206.706 73.2798ZM244.922 86.3356C245.46 85.2796 245.992 84.2353 246.594 83.2915C246.873 82.8537 247.328 82.5513 247.765 82.2615H247.765C247.891 82.1783 248.014 82.0958 248.132 82.0117C249.603 84.3022 248.15 86.7558 246.898 88.8687C246.753 89.1139 246.61 89.3545 246.476 89.5896C246.08 90.2793 245.693 90.9977 245.303 91.7223C244.47 93.2705 243.621 94.8463 242.637 96.2317C240.239 99.6081 235.022 95.9554 234.867 92.4852C234.748 89.8289 236.631 90.9851 237.84 91.9772C239.084 92.9992 239.673 93.2536 240.978 92.1374C242.731 90.6368 243.839 88.4621 244.922 86.3356ZM230.798 76.9791C231.326 73.4951 228.939 76.2007 228.428 77.803C227.798 79.7802 227.276 82.5728 228.23 84.5347C229.98 88.1361 234.915 86.4197 237.29 84.5066C238.404 83.6095 239.964 81.7409 239.911 80.1835C239.819 77.4737 237.73 79.0984 236.445 80.0977H236.444C236.281 80.2251 236.13 80.3425 235.998 80.4392C235.945 80.4783 235.888 80.52 235.829 80.5637C234.637 81.4435 232.268 83.1918 230.88 82.3267C229.604 81.5323 230.115 79.6452 230.518 78.1605C230.638 77.7177 230.748 77.3106 230.798 76.9791ZM237.859 62.9282C240.677 62.3676 244.306 62.6565 246.758 64.253C249.917 66.3096 245.763 67.7905 243.964 67.9747C241.786 68.1967 239.001 68.3439 237.001 67.2761C234.165 65.7625 235.111 63.4758 237.859 62.9282ZM205.685 57.706C203.53 57.2875 200.523 58.3743 202.006 60.9347C203.113 62.8458 205.841 63.4888 207.975 63.9923C208.234 64.0533 208.485 64.1126 208.723 64.1714C211.096 64.7602 212.27 63.8922 211.453 61.2766C210.662 58.7452 208.008 58.1577 205.685 57.706ZM250.676 84.4876C250.874 83.6604 252.031 80.5506 252.812 82.8335C252.932 83.1843 252.947 83.6991 252.962 84.2487C253.002 85.6379 253.047 87.2525 254.816 87.0178C255.728 86.8971 256.161 85.9819 256.561 85.1341C256.76 84.7139 256.951 84.3102 257.188 84.0275C259.6 81.158 258.86 86.5854 258.23 87.9439C256.841 90.9375 252.954 93.0005 251.026 89.2023C250.308 87.7896 250.312 86.0063 250.676 84.4876ZM259.755 72.4189C260.874 73.7172 262.739 75.8819 263.962 74.314C265.156 72.7835 263.102 70.4119 262.078 69.2297C262.033 69.1784 261.991 69.1292 261.95 69.0825C261.921 69.0484 261.89 69.0122 261.857 68.974C260.931 67.8948 258.557 65.1278 257.352 67.2004C256.598 68.4979 258.366 70.9435 259.207 71.8023C259.356 71.955 259.542 72.1712 259.755 72.4189ZM226.894 97.8867C225.74 96.5619 225.86 94.1066 226.515 92.5736C227.047 91.3253 227.938 92.8705 228.455 93.765C228.581 93.9833 228.684 94.1625 228.755 94.2533C228.986 94.5507 229.318 94.8262 229.659 95.1092C230.37 95.6988 231.12 96.3204 231.071 97.2335C230.952 99.4642 227.909 99.0504 226.894 97.8867Z" fill="black"/>
<path fill-rule="evenodd" clip-rule="evenodd" d="M327.483 81.3998C326.216 81.0562 324.95 80.7126 323.691 80.3589C320.761 79.5354 323.529 77.6823 325.27 77.8127C326.617 77.9132 327.933 78.3851 329.227 78.849C329.799 79.0538 330.367 79.2574 330.931 79.4269C336.562 81.1163 341.781 82.9639 347.042 85.5862C347.826 85.9777 351.283 87.8337 348.996 88.6555C347.796 89.087 345.38 87.7883 343.688 86.879C343.147 86.5884 342.681 86.3377 342.351 86.1956C337.576 84.1381 332.516 82.7654 327.483 81.3998ZM375.301 123.097C356.465 111.421 337.709 99.9841 316.405 93.2949C315.295 92.9466 314.95 91.957 315.533 90.9766C316.146 89.9433 317.326 89.9812 318.372 90.0148L318.461 90.0177C321.218 90.1048 323.91 90.9745 326.516 91.817L326.848 91.9242C332.808 93.8475 338.485 96.5156 344.083 99.3044C353.898 104.192 363.342 110.106 371.999 116.831C373.809 118.236 375.665 119.375 377.633 120.524C377.755 120.596 377.882 120.668 378.012 120.743C379.228 121.44 380.735 122.304 381.173 123.659C382.406 127.473 376.184 123.645 375.301 123.097ZM71.1496 119.627C64.2662 124.977 57.5399 130.549 51.3169 136.655C49.1013 138.83 47.2548 141.317 45.41 143.802C44.5652 144.94 43.7205 146.078 42.8408 147.185C42.7465 147.304 42.6426 147.442 42.5294 147.593C41.8213 148.536 40.7621 149.947 39.6064 149.791C38.1358 149.594 37.8385 147.063 37.8854 145.957C38.046 142.188 41.491 138.548 43.9478 135.953C46.7114 133.034 49.6661 130.19 52.6835 127.533C56.0057 124.608 59.6111 122.093 63.2851 119.632C64.6278 118.732 65.9494 117.78 67.274 116.827C69.5077 115.219 71.7477 113.606 74.1035 112.232C75.8708 111.2 78.8053 110.808 77.8436 113.912C77.2817 115.726 75.0749 117.099 73.1493 118.297C72.403 118.761 71.6993 119.199 71.1496 119.627ZM46.4951 112.208C50.3699 111.003 53.9626 109.132 57.5554 107.26C59.8965 106.041 62.2379 104.822 64.6568 103.787C66.3964 103.043 68.1612 102.362 69.9256 101.681C71.5128 101.068 73.0996 100.456 74.6683 99.7977C74.8161 99.7355 74.976 99.6766 75.1406 99.6156C75.9622 99.312 76.8945 98.9671 77.0056 97.9998C77.1579 96.6607 76.3755 96.7007 75.4196 96.7494C75.3582 96.7524 75.2955 96.7557 75.2323 96.7583C73.0538 96.8563 70.7502 97.8211 68.5733 98.7329C67.6747 99.1097 66.7971 99.4773 65.9591 99.7708C65.2128 100.032 64.4657 100.288 63.7191 100.543C61.3806 101.342 59.0488 102.139 56.7679 103.116C53.7333 104.415 50.6342 105.76 47.9013 107.63C47.8045 107.697 47.7035 107.765 47.5999 107.834C46.695 108.443 45.5998 109.18 45.2084 110.185C44.8165 111.189 45.0324 112.663 46.4951 112.208Z" fill="black"/>
<path fill-rule="evenodd" clip-rule="evenodd" d="M206.917 86.3567C207.283 85.2834 211.812 73.5485 210.039 73.1948C208.162 72.8193 205.652 79.6279 205.107 80.8581C203.096 85.4011 201.905 90.2756 200.971 95.1487C200.321 98.5419 199.75 102.018 199.978 105.487C200.153 108.153 201.255 108.557 203.071 110.19C203.071 102.092 204.302 94.0212 206.917 86.3567Z" fill="black"/>
</svg>
